<?xml version="1.0" encoding="utf-8"?>
<!-- Generator: Adobe Illustrator 24.3.0, SVG Export Plug-In . SVG Version: 6.00 Build 0)  -->
<svg version="1.1" id="Layer_1" xmlns="http://www.w3.org/2000/svg" xmlns:xlink="http://www.w3.org/1999/xlink" x="0px" y="0px"
	 viewBox="0 0 4000 2000" style="enable-background:new 0 0 4000 2000;" xml:space="preserve">
<style type="text/css">
	.st0{clip-path:url(#SVGID_3_);}
	.st1{clip-path:url(#SVGID_4_);fill:#262626;}
</style>
<g>
	<g>
		<defs>
			<rect id="SVGID_1_" x="200" y="209" width="3600" height="1582"/>
		</defs>
		<defs>
			<path id="SVGID_2_" d="M2534.1,555.4v783.2l0,0l0,3.3c-2.9,215.2-148.7,395.5-345.9,448.5l0-244.5
				c71.8-42,120.2-120.4,120.3-210.2l0-780.3H2534.1L2534.1,555.4z M1133.3,209v813.9c0,258-208.9,467.2-466.6,467.2
				S200,1280.9,200,1022.9s208.9-467.2,466.6-467.2c88.1,0,170.5,24.5,240.8,67l0-413.6H1133.3L1133.3,209z M3694.5,1277.2
				c58.3,0,105.5,47.2,105.5,105.5s-47.2,105.5-105.5,105.5c-58.3,0-105.5-47.2-105.5-105.5S3636.2,1277.2,3694.5,1277.2
				L3694.5,1277.2z M3122.4,554.9c257.7,0,466.6,208.9,466.6,466.6s-208.9,466.6-466.6,466.6s-466.6-208.9-466.6-466.6
				S2864.7,554.9,3122.4,554.9L3122.4,554.9z M1721.5,554.9c257.7,0,466.6,208.9,466.6,466.6s-208.9,466.6-466.6,466.6
				s-466.6-208.9-466.6-466.6S1463.8,554.9,1721.5,554.9L1721.5,554.9z M3694.5,1303.6c-43.7,0-79.1,35.4-79.1,79.1
				s35.4,79.1,79.1,79.1c43.7,0,79.1-35.4,79.1-79.1S3738.2,1303.6,3694.5,1303.6L3694.5,1303.6z M3698.3,1333l1.1,0
				c10.6,0.2,19,2.7,25,7.7c6.3,5.2,9.4,12.5,9.4,22c0,6.6-1.6,12.1-4.7,16.6c-3.2,4.5-7.6,7.7-13.3,9.7l0,0l19.7,34.6l0.1,0.3
				c0.2,0.4,0.3,0.8,0.3,1.2c0,0.8-0.3,1.5-0.9,2c-0.6,0.5-1.2,0.8-2,0.8l0,0h-12.5l-0.5,0c-1.2-0.1-2.2-0.4-2.9-1
				c-0.8-0.7-1.5-1.6-2.2-2.6l0,0l-17.4-32.1H3679v32.6l0,0.3c-0.1,0.8-0.4,1.4-0.9,2c-0.6,0.6-1.4,0.9-2.4,0.9l0,0h-12.5l-0.3,0
				c-0.8-0.1-1.4-0.4-2-0.9c-0.6-0.6-0.9-1.4-0.9-2.3l0,0v-88.3l0-0.4c0.1-0.8,0.4-1.5,0.9-2.1c0.6-0.6,1.4-0.9,2.4-0.9l0,0H3698.3
				L3698.3,1333z M3697.9,1348.2H3679v28.5h18.9c5.4,0,9.5-1.2,12.2-3.6c2.7-2.4,4.1-5.9,4.1-10.5c0-4.6-1.4-8.2-4.1-10.6
				C3707.3,1349.4,3703.3,1348.2,3697.9,1348.2L3697.9,1348.2L3697.9,1348.2z M666.6,781.7c-133,0-240.8,108-240.8,241.1
				S533.6,1264,666.6,1264s240.8-108,240.8-241.1S799.6,781.7,666.6,781.7L666.6,781.7z M3122.4,780.7
				c-133,0-240.8,107.8-240.8,240.8s107.8,240.8,240.8,240.8c133,0,240.8-107.8,240.8-240.8S3255.4,780.7,3122.4,780.7L3122.4,780.7
				z M1721.5,780.7c-133,0-240.8,107.8-240.8,240.8s107.8,240.8,240.8,240.8s240.8-107.8,240.8-240.8S1854.6,780.7,1721.5,780.7
				L1721.5,780.7z M2421.3,209c62.3,0,112.8,50.6,112.8,113c0,62.4-50.5,113-112.8,113c-62.3,0-112.8-50.6-112.8-113
				C2308.5,259.6,2359,209,2421.3,209L2421.3,209z"/>
		</defs>
		<clipPath id="SVGID_3_">
			<use xlink:href="#SVGID_1_"  style="overflow:visible;"/>
		</clipPath>
		<clipPath id="SVGID_4_" class="st0">
			<use xlink:href="#SVGID_2_"  style="overflow:visible;"/>
		</clipPath>
		<rect x="190" y="199" class="st1" width="3620" height="1601.4"/>
	</g>
</g>
</svg>
